# xmcd
#
# Track frame offsets:
# 150
# 17477
# 28382
# 42797
# 59267
# 71892
# 88772
# 100652
# 113477
# 127442
# 141100
# 159830
# 172397
# 185305
# 200845
# 217215
#
# Disc length: 3089 seconds
#
#
# Revision: 0
# Processed by: cddbd v1.5.2PL0 Copyright (c) Steve Scherf et al.
# Submitted via: FreeRIP 2.944 
#
DISCID=f20c0f10
DTITLE=Charley Pride - Just for the love of it
DYEAR=1900
DGENRE=Country
TTITLE0=Just for the love of it
TTITLE1=Walk on by
TTITLE2=For today
TTITLE3=Me and Bobby McGee
TTITLE4=Lone star lonely
TTITLE5=I've been there
TTITLE6=Lovesick blues
TTITLE7=I'll be leaving alone
TTITLE8=Sea of heartbreak
TTITLE9=Burning down the town
TTITLE10=Where do I put her memory
TTITLE11=I came straight to you
TTITLE12=I don't think she's in love anymore
TTITLE13=Hello love
TTITLE14=Walls
TTITLE15=The midnight hour
EXTD=
EXTT0=
EXTT1=
EXTT2=
EXTT3=
EXTT4=
EXTT5=
EXTT6=
EXTT7=
EXTT8=
EXTT9=
EXTT10=
EXTT11=
EXTT12=
EXTT13=
EXTT14=
EXTT15=
PLAYORDER=
